<?xml version="1.0" encoding="iso-8859-1"?>
<!-- Generator: Adobe Illustrator 18.0.0, SVG Export Plug-In . SVG Version: 6.00 Build 0)  -->
<!DOCTYPE svg PUBLIC "-//W3C//DTD SVG 1.1//EN" "http://www.w3.org/Graphics/SVG/1.1/DTD/svg11.dtd">
<svg version="1.1" id="Capa_1" xmlns="http://www.w3.org/2000/svg" xmlns:xlink="http://www.w3.org/1999/xlink" x="0px" y="0px"
	 viewBox="0 0 133.426 133.426" style="enable-background:new 0 0 133.426 133.426;" xml:space="preserve">
<g>
	<path style="fill:#C5C7C9;" d="M79.374,56.004h19.564c5.117,0,9.265-4.147,9.265-9.264V9.265c0-5.117-4.148-9.265-9.265-9.265
		H79.374c-1.137,0-2.058,0.921-2.058,2.058v51.889C77.317,55.083,78.238,56.004,79.374,56.004z"/>
	<circle style="fill:#8A8C8F;" cx="38.658" cy="52.246" r="7.567"/>
	<circle style="fill:#7A7C7F;" cx="38.658" cy="52.246" r="4.478"/>
	<path style="fill:#B1B3B5;" d="M68.773,63.829V51.011c0-3.482-2.849-6.331-6.332-6.331h-9.883c-3.482,0-6.332,2.849-6.332,6.331
		v12.818H68.773z"/>
	<path style="fill:#C5C7C9;" d="M66.23,133.426H40.22c-8.283,0-14.998-6.714-14.998-14.997V63.004c0-3.865,3.134-7,7-7h42.004
		c3.866,0,7,3.135,7,7v55.425C81.227,126.712,74.512,133.426,66.23,133.426z"/>
	<path style="fill:#B5B7B9;" d="M81.226,60.328v63.836c0,5.115-4.145,9.26-9.266,9.26H34.489c-5.121,0-9.266-4.145-9.266-9.26
		v-0.803c29.441-4.083,52.093-28.996,52.093-59.123c0-2.792-0.198-5.541-0.574-8.234h0.161
		C79.293,56.004,81.226,57.938,81.226,60.328z"/>
	<path style="fill:#B5B7B9;" d="M108.202,9.268v37.471c0,5.121-4.145,9.266-9.266,9.266h-12.07
		c10.656-8.147,17.84-23.535,17.84-41.184c0-4.793-0.531-9.426-1.519-13.787C106.17,2.571,108.202,5.678,108.202,9.268z"/>
	<circle style="fill:#78B19B;" cx="79.171" cy="56.004" r="7.824"/>
	<path style="fill:#6DA28E;" d="M86.995,56.004c0,4.324-3.502,7.827-7.827,7.827c-3.817,0-6.999-2.736-7.678-6.362
		c1.433,1.6,3.515,2.601,5.825,2.601c4.324,0,7.827-3.503,7.827-7.82c0-0.501-0.049-0.995-0.142-1.465
		C86.242,52.168,86.995,53.997,86.995,56.004z"/>
	<ellipse style="fill:#7A7C7F;" cx="53.175" cy="48.54" rx="2.934" ry="0.772"/>
	<ellipse style="fill:#7A7C7F;" cx="53.175" cy="51.475" rx="2.934" ry="0.771"/>
	<ellipse style="fill:#7A7C7F;" cx="61.205" cy="48.54" rx="2.934" ry="0.772"/>
	<ellipse style="fill:#7A7C7F;" cx="61.205" cy="51.475" rx="2.934" ry="0.771"/>
	<g>
		<path style="fill:#F0B847;" d="M57.499,7.82c0,0-27.376,35.006,0,35.006C84.874,42.826,57.499,7.82,57.499,7.82z"/>
		<path style="fill:#E88124;" d="M57.499,19.388c0,0-18.33,23.438,0,23.438C75.828,42.826,57.499,19.388,57.499,19.388z"/>
	</g>
</g>
<g>
</g>
<g>
</g>
<g>
</g>
<g>
</g>
<g>
</g>
<g>
</g>
<g>
</g>
<g>
</g>
<g>
</g>
<g>
</g>
<g>
</g>
<g>
</g>
<g>
</g>
<g>
</g>
<g>
</g>
</svg>
